<?xml version="1.0" standalone="no"?>
<!DOCTYPE svg PUBLIC "-//W3C//DTD SVG 20010904//EN"
 "http://www.w3.org/TR/2001/REC-SVG-20010904/DTD/svg10.dtd">
<svg version="1.0" xmlns="http://www.w3.org/2000/svg"
 width="377.000000pt" height="377.000000pt" viewBox="0 0 377.000000 377.000000"
 preserveAspectRatio="xMidYMid meet">
<metadata>
Created by potrace 1.14, written by Peter Selinger 2001-2017
</metadata>
<g transform="translate(0.000000,377.000000) scale(0.100000,-0.100000)"
fill="#000000" stroke="none">
<path d="M1605 3560 c-368 -65 -662 -217 -921 -475 -255 -253 -420 -577 -479
-939 -20 -126 -20 -395 0 -524 117 -733 684 -1300 1417 -1417 129 -20 398 -20
524 0 497 80 921 364 1192 797 88 141 172 356 212 543 31 142 39 439 16 585
-60 378 -219 693 -481 955 -260 260 -576 420 -947 479 -135 22 -402 20 -533
-4z"/>
</g>
</svg>
