<svg width="80" height="80" viewBox="0 0 80 80" fill="none" xmlns="http://www.w3.org/2000/svg">
<g id="accidente" clip-path="url(#clip0_48_633)">
<path id="Vector" d="M13.3105 62.7056V74.6688H10.6931V62.7056C9.45067 62.7056 8.29607 62.7056 7.14146 62.7056C2.80889 62.7008 0.00621761 59.9008 0.00302368 55.5696C-0.000170251 50.4832 -0.00176722 45.3984 0.00302368 40.312C0.0110085 32.5504 5.83834 26.7008 13.5724 26.6832C13.6283 26.6832 13.6842 26.688 13.7385 26.6832C15.4042 26.536 16.8814 26.9584 18.4176 27.6976C23.3427 30.064 28.2949 29.8448 33.1081 27.2688C33.9034 26.8432 34.6763 26.6944 35.5547 26.6672C38.517 26.5792 41.3628 26.9392 43.9675 28.488C45.6315 29.4768 47.0369 30.7328 48.2234 32.448C47.2764 32.6304 46.4524 32.8208 45.6172 32.9296C45.4032 32.9568 45.1045 32.7824 44.9337 32.6128C42.7171 30.3952 40.0517 29.3424 36.9233 29.336C35.684 29.3328 34.5773 29.5408 33.4291 30.088C28.4114 32.48 23.2804 32.5824 18.1094 30.5376C17.9322 30.4672 17.7533 30.4048 17.4387 30.288C17.5425 30.5792 17.5872 30.7744 17.675 30.9456C20.7668 36.9056 23.8681 42.8608 26.9438 48.8288C27.1786 49.2848 27.4597 49.3808 27.9148 49.376C29.6619 49.3568 31.4105 49.3584 33.1592 49.3696C36.984 49.3952 39.9431 52.288 39.9591 56.0016C39.9751 59.7584 37.0095 62.6944 33.1465 62.704C26.8768 62.72 20.6055 62.7088 14.3342 62.7088C14.0324 62.7088 13.7321 62.7088 13.3105 62.7088V62.7056ZM5.22031 33.2608C3.79422 34.6192 2.6987 37.2864 2.68433 39.6112C2.65239 45.112 2.65079 50.6128 2.67634 56.1136C2.68593 58.2592 4.40266 60.0016 6.5394 60.0224C10.6436 60.0592 14.7494 60.0304 18.8536 60.024C18.8951 60.024 18.9382 59.9728 18.9957 59.936C18.9798 59.8608 18.9814 59.7744 18.9446 59.7056C17.6942 57.2928 16.4518 54.8752 15.1694 52.4784C15.0512 52.2576 14.6759 52.0608 14.4124 52.0512C13.178 52.0064 11.9403 52.032 10.7266 52.032V49.3424H13.5677C10.765 43.9424 8.01181 38.6368 5.22191 33.2608H5.22031ZM29.7385 60.0368C29.5772 59.7008 29.467 59.4544 29.3441 59.216C28.1591 56.9248 26.9742 54.632 25.7844 52.3424C21.923 44.9072 18.0631 37.472 14.1889 30.0432C14.0499 29.7776 13.7864 29.3904 13.5692 29.3824C11.2632 29.3056 9.16003 29.9424 7.21173 31.3104C8.43181 33.6608 9.61835 35.9472 10.8049 38.2336C14.4604 45.2752 18.1142 52.3184 21.7856 59.352C21.9294 59.6272 22.2472 60.0016 22.4915 60.0064C24.8694 60.056 27.2489 60.0368 29.7385 60.0368ZM28.7628 52.0688C28.7628 52.1648 28.7436 52.2272 28.766 52.2672C30.0356 54.7296 31.2972 57.1968 32.6019 59.64C32.7153 59.8528 33.1209 60.0176 33.3908 60.0176C35.4205 60.0176 37.1548 58.3536 37.289 56.3216C37.4279 54.232 35.9667 52.2928 33.8795 52.0992C32.1883 51.9424 30.4699 52.0672 28.7628 52.0672V52.0688Z" fill="currentColor"/>
<path id="Vector_2" d="M42.6261 46.1071C42.6261 43.3279 42.6245 40.5487 42.6261 37.7679C42.6261 36.5311 42.9695 36.1471 44.2071 35.9935C49.846 35.2943 55.2054 33.6863 60.2407 31.0383C60.9465 30.6671 61.5566 30.6399 62.2736 31.0175C67.3583 33.6943 72.7705 35.3183 78.4684 36.0063C79.524 36.1343 79.9169 36.5695 79.9169 37.6511C79.9201 42.9871 80.1293 48.3343 79.869 53.6591C79.2717 65.9087 73.2735 74.6207 62.1602 79.7919C61.5645 80.0687 61.0264 80.0591 60.4115 79.8015C49.7741 75.3407 42.7172 64.8351 42.6261 53.2767C42.607 50.8863 42.6229 48.4959 42.6229 46.1055L42.6261 46.1071ZM45.2899 38.5375V39.5119C45.2899 43.7903 45.2611 48.0687 45.3042 52.3471C45.3202 53.9247 45.3665 55.5263 45.6364 57.0751C47.2462 66.2911 52.3037 72.9311 60.715 76.9903C61.0296 77.1423 61.547 77.1407 61.8616 76.9871C70.284 72.8879 75.4821 66.2447 76.8906 56.9599C77.8089 50.9071 77.1429 44.7599 77.2244 38.6559C77.2244 38.6319 77.2004 38.6063 77.1637 38.5327C76.6527 38.4511 76.1097 38.3695 75.5667 38.2767C70.787 37.4559 66.2181 35.9807 61.8648 33.8335C61.5853 33.6959 61.1413 33.6175 60.8874 33.7423C55.9784 36.1743 50.817 37.7711 45.2883 38.5407L45.2899 38.5375Z" fill="currentColor"/>
<path id="Vector_3" d="M38.6244 13.3472C38.634 20.704 32.6422 26.6816 25.2594 26.6816C18.0012 26.6816 11.9982 20.68 11.9902 13.416C11.9839 6.04165 17.9086 0.0192464 25.1908 4.63831e-05C32.6326 -0.0191536 38.6149 5.92485 38.6244 13.3472ZM35.9623 13.3008C35.9511 7.43205 31.1762 2.67365 25.2914 2.66725C19.4529 2.66085 14.6412 7.48805 14.654 13.3376C14.6684 19.2288 19.4337 24.0128 25.2866 24.0112C31.2033 24.008 35.9735 19.2224 35.9623 13.3008Z" fill="currentColor"/>
<path id="Vector_4" d="M26.623 36.0928V38.6272H24.0327V36.0928H26.623Z" fill="currentColor"/>
<path id="Vector_5" d="M48.2441 54.2415C48.9069 53.5887 49.4962 53.0079 50.0775 52.4351C52.3691 54.7359 54.6911 57.0671 57.0115 59.3983C62.1282 54.2831 67.1219 49.2927 72.1395 44.2783C72.7863 44.9647 73.3532 45.5679 73.984 46.2383C73.8307 46.4031 73.6359 46.6255 73.4283 46.8351C68.4681 51.8063 63.5079 56.7759 58.5462 61.7439C57.4075 62.8831 56.9013 62.8847 55.777 61.7599C53.2842 59.2703 50.7897 56.7807 48.2473 54.2415H48.2441Z" fill="currentColor"/>
</g>
<defs>
<clipPath id="clip0_48_633">
<rect width="80" height="80" fill="currentColor"/>
</clipPath>
</defs>
</svg>
