<svg xmlns="http://www.w3.org/2000/svg" viewBox="0 0 51.3 51.3" xml:space="preserve"><g fill="currentColor"><path d="M44.5 51.3c.8 0 1.5-.6 1.5-1.5V1.5c0-.8-.7-1.5-1.5-1.5H6.9C6 0 5.4.7 5.4 1.5v48.3c0 .9.7 1.5 1.5 1.5h37.6zm-1.5-3H8.4v-10h6.2c1.2 3 6 5.5 11.5 5.5 5.4 0 10.5-2.5 11.7-5.5H43v10zM8.4 3H43v32.3h-6.3c-.9 0-1.5.6-1.5 1.5 0 1.3-3.9 4-9.1 4-5.2 0-8.8-2.6-8.8-4 0-.9-.7-1.5-1.5-1.5H8.4V3z"/><path
        d="m25.2 32.3.5.2H40a.5.5 0 0 0 0-1H26l-1.3-2.2c0-.2-.2-.3-.4-.3h-11c-.2 0-.3 0-.4.2L11 31.7a.5.5 0 0 0 .9.6l1.6-2.3H24l1.2 2.3zM11.5 28l.4-.3 1.6-2.3H24l1.2 2.3.5.2H40a.5.5 0 0 0 0-1H26l-1.3-2.2c0-.2-.2-.3-.4-.3h-11l-.4.2-1.9 2.5a.5.5 0 0 0 .5.8zm0-4.7c.1 0 .3 0 .4-.2l1.6-2.3H24l1.2 2.3.5.2H40a.5.5 0 0 0 0-1H26l-1.3-2.2c0-.2-.2-.3-.4-.3h-11l-.4.2-1.9 2.5a.5.5 0 0 0 .5.8zm0-4.5.4-.2 1.6-2.3H24l1.2 2.2c.1.2.3.3.5.3H40a.5.5 0 0 0 0-1H26l-1.3-2.3-.4-.2h-11c-.2 0-.3 0-.4.2L11 18a.5.5 0 0 0 .5.8zm0-4.6c.1 0 .3 0 .4-.2l1.6-2.3H24l1.2 2.2c.1.2.3.3.5.3H40a.5.5 0 0 0 0-1H26l-1.3-2.3-.4-.2h-11c-.2 0-.3 0-.4.2L11 13.4a.5.5 0 0 0 .5.8zm0-4.6c.1 0 .3 0 .4-.2L13.5 7H24l1.2 2.2c.1.2.3.3.5.3H40a.5.5 0 0 0 0-1H26l-1.3-2.3-.4-.2h-11c-.2 0-.3 0-.4.2L11 8.8a.5.5 0 0 0 .5.8z"/></g></svg>