<svg xmlns="http://www.w3.org/2000/svg" width="64" height="80" viewBox="0 0 64 80" fill="none">
  <g clip-path="url(#clip0_48_584)">
    <path d="M63.4949 47.0385C63.555 53.9537 61.8976 60.4033 57.9709 66.1857C52.7195 73.9201 45.491 78.7585 36.0353 79.7777C20.7471 81.4273 8.23153 73.7617 2.97694 60.1169C0.650757 54.0705 -0.13167 47.8689 1.03548 41.4769C1.7546 37.5457 3.33731 33.9681 5.73816 30.7425C6.10664 30.2481 6.60012 29.8801 7.14555 30.1745C7.5319 30.3841 7.92473 30.9233 7.96694 31.3505C8.23478 33.9729 8.72502 36.5217 10.0285 38.8593C10.7736 40.1937 11.7557 41.3169 13.241 41.8529C13.6566 42.0033 14.2491 41.9905 14.6517 41.8129C16.8528 40.8385 18.0752 38.5441 17.8301 35.6897C17.6694 33.8321 17.2246 31.9985 17.0411 30.1409C16.7084 26.7649 16.8999 23.4305 18.2878 20.2577C19.3495 17.8289 21.0377 15.9601 23.3639 14.6225C26.0374 13.0849 28.4789 11.2641 30.219 8.67694C31.7044 6.46894 32.0436 4.18414 30.7304 1.74574C30.5453 1.40174 30.6281 0.755338 30.844 0.400138C31.1752 -0.143862 31.7871 -0.0382624 32.352 0.172938C36.9671 1.89614 40.0692 6.47214 39.7575 11.4449C39.6406 13.3153 39.1764 15.1873 38.6813 17.0065C37.8014 20.2369 37.4459 23.4545 38.5887 26.6673C39.6585 29.6753 41.8775 31.5793 44.905 32.5809C45.2621 32.6993 45.7393 32.6433 46.1078 32.5169C48.0931 31.8385 49.4437 30.4641 50.2975 28.6033C51.3494 26.3105 51.5248 23.8833 51.3852 21.4129C51.3641 21.0289 51.2228 20.6145 51.3251 20.2673C51.4501 19.8385 51.6887 19.2609 52.0328 19.1233C52.3819 18.9841 53.0799 19.1553 53.3461 19.4433C54.3395 20.5185 55.294 21.6449 56.1252 22.8449C60.5227 29.1953 62.8894 36.2385 63.3797 43.9041C63.4251 44.6177 63.4641 45.3329 63.4949 46.0481C63.5095 46.3777 63.4965 46.7089 63.4965 47.0385H63.4949ZM33.8406 3.62254C34.1344 7.96174 31.9138 10.9217 28.9577 13.4449C27.5536 14.6433 25.9855 15.6753 24.406 16.6497C22.7438 17.6753 21.4614 18.9841 20.6156 20.7185C19.7813 22.4305 19.4225 24.2513 19.2797 26.1329C19.0686 28.9089 19.6157 31.6049 20.0329 34.3265C20.4647 37.1393 20.1725 39.9057 18.0719 42.0577C15.1549 45.0449 13.1144 45.1185 9.98307 42.4993C9.58211 42.1649 9.23635 41.7553 8.91332 41.3441C7.62767 39.7057 6.87771 37.8209 6.37286 35.8305C6.27547 35.4481 6.16833 35.0689 6.02873 34.5457C5.80147 34.9537 5.63751 35.2081 5.51414 35.4801C5.13105 36.3345 4.71548 37.1777 4.40056 38.0561C2.44125 43.5153 2.44125 49.0753 3.7269 54.6481C5.38915 61.8561 8.92955 67.9489 15.0429 72.4177C19.4241 75.6209 24.3784 77.2257 29.7986 77.6065C38.2738 78.2017 45.689 75.8305 51.8088 69.9569C57.4839 64.5105 60.4902 57.8257 61.0551 50.0273C61.6119 42.3473 60.1704 35.0833 56.6203 28.2369C55.82 26.6929 54.8606 25.2305 53.9029 23.6081C53.6204 25.0945 53.4954 26.3889 53.1205 27.6081C52.054 31.0721 50.1028 33.8001 46.3432 34.8177C45.827 34.9569 45.2134 35.0529 44.7199 34.9121C40.4831 33.7041 37.5498 31.0801 36.222 26.8961C35.1019 23.3681 35.4623 19.8433 36.4655 16.3297C36.9086 14.7777 37.3193 13.1825 37.4443 11.5841C37.6911 8.42734 36.5239 5.78254 33.8406 3.62414V3.62254Z" fill="currentColor"/>
    <path d="M50.6841 57.7745C50.5769 63.3441 48.6452 67.4241 44.6503 70.3889C35.8439 76.9265 24.653 75.7137 17.3595 68.8977C12.8808 64.7121 11.9783 59.4609 13.337 53.7073C13.5383 52.8545 13.7883 51.9937 14.1665 51.2081C14.3597 50.8033 14.8369 50.4065 15.2719 50.2705C15.8482 50.0913 16.1923 50.5809 16.4845 51.0625C17.1858 52.2145 17.8286 53.4225 18.6792 54.4609C20.9648 57.2513 23.9257 58.3633 27.531 57.5537C29.5082 57.1089 30.3799 56.0577 30.5309 54.0369C30.7159 51.5665 30.1397 49.2033 29.2615 46.9409C28.2972 44.4577 27.2226 42.0017 26.0052 39.6305C23.0215 33.8209 24.4906 27.9089 29.3605 23.7985C30.328 22.9825 31.3409 23.3553 31.4578 24.5921C31.9561 29.9265 34.5972 34.2817 37.9412 38.2753C39.498 40.1361 41.3112 41.7889 43.0124 43.5313C46.1291 46.7217 49.0608 50.0385 50.1598 54.4929C50.4747 55.7665 50.5769 57.0897 50.6825 57.7713L50.6841 57.7745ZM15.5187 54.2545C14.3045 59.7617 15.3969 64.4641 19.8172 68.0193C26.3542 73.2801 34.93 74.0289 42.3712 69.2065C47.7329 65.7313 49.7426 59.4449 47.4407 53.5281C46.1665 50.2529 43.9539 47.5697 41.3923 45.2113C38.1084 42.1873 35.1346 38.9361 32.7954 35.1441C31.2419 32.6257 30.0812 29.9425 29.4417 27.0113C29.3037 27.0945 29.2225 27.1233 29.1722 27.1793C29.0229 27.3425 28.8735 27.5089 28.7469 27.6881C26.3379 31.0897 26.109 34.6289 27.9564 38.3569C29.117 40.6993 30.2679 43.0561 31.2468 45.4753C32.3685 48.2465 33.0778 51.1313 32.8733 54.1665C32.6753 57.1025 31.1688 58.9905 28.2859 59.7185C23.9874 60.8049 20.3642 59.5537 17.3351 56.4657C16.7053 55.8241 16.1875 55.0769 15.5203 54.2561L15.5187 54.2545Z" fill="currentColor"/>
  </g>
  <defs>
    <clipPath id="clip0_48_584">
      <rect width="63" height="80" fill="currentColor" transform="translate(0.5)"/>
    </clipPath>
  </defs>
</svg>