<svg width="30" viewBox="0 0 24 24" fill="none" xmlns="http://www.w3.org/2000/svg">
  <path fill-rule="evenodd" clip-rule="evenodd" d="M13.8 6a2 2 0 0 1 .5 3l-1.1 1.4a1 1 0 0 0 0 1.3l7.6 7.5-.2.6a1 1 0 0 1-1.8.1l-1-1.5a1 1 0 0 0-1.4-.2l-.5.3-1-2.4a1 1 0 0 0-1.5-.4l-.5.3-1-2.4a1 1 0 0 0-1.5-.4l-1.5 1.1a2 2 0 0 1-2.8-.5L3.2 9.5A2 2 0 0 1 3.4 7L7 3.4a2 2 0 0 1 2.5-.2l4.3 2.9Zm2.3 14.8.6-.4.5.6a3 3 0 0 0 5.2-.4l.5-1.2a1 1 0 0 0-.2-1.1l-7.4-7.4.6-.8a4 4 0 0 0-1-5.7l-4.3-2.9a4 4 0 0 0-5 .5L2 5.6a4 4 0 0 0-.5 5l3 4.3a4 4 0 0 0 5.6 1l.5-.3 1 2.3a1 1 0 0 0 1.5.4l.5-.3 1 2.4a1 1 0 0 0 1.5.4ZM8 10a2 2 0 1 0 0-4 2 2 0 0 0 0 4Z" fill="currentColor"/>
</svg>