<svg width="131" height="51" viewBox="0 0 131 51" fill="none" xmlns="http://www.w3.org/2000/svg">
<path d="M105.861 51C119.745 51 131 39.5833 131 25.5C131 11.4167 119.745 0 105.861 0C91.9776 0 80.7227 11.4167 80.7227 25.5C80.7227 39.5833 91.9776 51 105.861 51Z" fill="white"/>
<path d="M126.396 15.9619C124.595 11.9719 121.703 8.59057 118.062 6.21986C114.422 3.84914 110.187 2.58887 105.861 2.58887C101.535 2.58887 97.2996 3.84914 93.6591 6.21986C90.0187 8.59057 87.126 11.9719 85.3252 15.9619H126.396Z" fill="#1D428A"/>
<path d="M85.3252 35.0381C87.1263 39.0277 90.0191 42.4087 93.6595 44.7792C97.2999 47.1497 101.535 48.4099 105.861 48.4099C110.187 48.4099 114.421 47.1497 118.062 44.7792C121.702 42.4087 124.595 39.0277 126.396 35.0381H85.3252Z" fill="#1D428A"/>
<path d="M83.9891 19.7617C83.6713 21.0202 83.46 22.3038 83.3574 23.5987H128.364C128.262 22.3038 128.051 21.0202 127.733 19.7617H83.9891Z" fill="#1D428A"/>
<path d="M127.733 31.237C128.051 29.9786 128.262 28.6948 128.364 27.3999H83.3574C83.46 28.6948 83.6713 29.9786 83.9891 31.237H127.733Z" fill="#1D428A"/>
<path d="M88.6045 40.174L105.861 2.58789L123.161 40.174H88.6045Z" fill="#BECD2E"/>
<path d="M0.805664 6.45166H6.87727C10.7687 6.45166 13.3493 8.75044 13.3493 12.4132C13.3493 16.0527 10.7898 18.3477 6.93853 18.3477H4.76837V25.2216H0.805664V6.45166ZM6.70727 14.9205C8.51358 14.9094 9.54104 13.9134 9.54104 12.402C9.54104 10.8905 8.52273 9.89373 6.70727 9.89373H4.76837V14.9205H6.70727Z" fill="currentColor"/>
<path d="M25.4688 15.7915C25.4688 15.8981 25.4688 16.0011 25.4688 16.1022V24.9715H22.3882L22.1469 23.244L21.933 23.46C20.3488 25.1291 13.5449 27.2684 13.5449 21.2661C13.5449 15.938 19.1613 16.9256 22.0664 17.4699V16.0947C21.7922 14.4831 20.4558 13.6838 18.5928 13.6838C17.5344 13.6729 16.4887 13.918 15.5423 14.3988L14.9024 11.6169C16.0247 10.964 17.2945 10.617 18.5882 10.6099C22.7045 10.6108 25.4688 13.0115 25.4688 15.7915ZM21.8361 19.4357C20.5993 18.9869 16.6758 18.3656 16.6776 20.809C16.6776 23.6 19.8131 23.0623 21.8361 21.1456V19.4357Z" fill="currentColor"/>
<path d="M37.4808 21.4273V24.7524C36.4281 25.2651 35.2685 25.5109 34.1015 25.4686C32.9345 25.4263 31.7951 25.0971 30.7812 24.5095C28.8615 23.2475 29.1166 20.0994 29.1166 20.0994V14.3299H26.334L32.5043 7.18994V11.2236H36.8409V14.3336H32.5181V20.1032C32.5777 20.7424 32.8771 21.3339 33.3545 21.7555C33.7939 22.1675 34.3687 22.3988 34.967 22.4046C35.795 22.4054 36.6021 22.1401 37.2724 21.647L37.4808 21.4273Z" fill="currentColor"/>
<path d="M49.6843 10.8631L48.8744 13.9833C48.3329 13.8352 47.7752 13.7568 47.2143 13.7497C46.5486 13.7734 45.8979 13.9574 45.3161 14.2867C44.7344 14.6159 44.2381 15.0809 43.8686 15.6432V24.9743H39.8145V10.9586H43.2543L43.7215 12.5349C44.1774 11.9244 44.76 11.4229 45.4279 11.0658C46.0959 10.7087 46.8331 10.5045 47.5873 10.468C48.3057 10.4523 49.0194 10.5868 49.6843 10.8631Z" fill="currentColor"/>
<path d="M50.1664 7.3949C50.1586 6.9702 50.2756 6.55274 50.5025 6.19574C50.7295 5.83874 51.0561 5.55842 51.4407 5.39038C51.8253 5.22233 52.2505 5.17418 52.6621 5.25217C53.0737 5.33015 53.4532 5.53068 53.752 5.8282C54.0509 6.12573 54.2557 6.50687 54.3403 6.92289C54.4249 7.33891 54.3855 7.77105 54.2271 8.16427C54.0687 8.55749 53.7985 8.89395 53.4509 9.13082C53.1033 9.36769 52.694 9.49421 52.2753 9.49428C52.0009 9.4971 51.7286 9.44503 51.4741 9.34102C51.2195 9.237 50.9876 9.08312 50.7918 8.88814C50.5959 8.69316 50.4399 8.46089 50.3326 8.20468C50.2253 7.94847 50.1688 7.67327 50.1664 7.3949ZM53.9755 11.1318V24.9547H50.5732V11.1318H53.9755Z" fill="currentColor"/>
<path d="M68.0626 15.7915C68.0626 15.8981 68.0626 16.0011 68.0626 16.1022V24.9715H64.982L64.7416 23.244L64.5277 23.46C62.9435 25.1291 56.1396 27.2684 56.1396 21.2661C56.1396 15.938 61.7561 16.9256 64.6612 17.4699V16.0947C64.3869 14.4831 63.0496 13.6838 61.1875 13.6838C60.1291 13.6729 59.0834 13.918 58.137 14.3988L57.4972 11.6169C58.6193 10.9638 59.8892 10.6168 61.1829 10.6099C65.2983 10.6108 68.0626 13.0115 68.0626 15.7915ZM64.4299 19.4357C63.1931 18.9869 59.2687 18.3656 59.2724 20.809C59.2724 23.6 62.406 23.0623 64.4299 21.1456V19.4357Z" fill="currentColor"/>
<path d="M8.85059 39.8039C8.85059 42.493 6.74813 44.0053 4.25256 44.0053C2.72287 43.9414 1.24485 43.4258 0 42.5217L0.412317 40.7683C1.52259 41.6342 2.85574 42.1565 4.25161 42.2723C4.59248 42.3016 4.93567 42.2597 5.25992 42.1491C5.58417 42.0385 5.88258 41.8616 6.13666 41.6292C6.39075 41.3969 6.59515 41.1141 6.73712 40.7984C6.87909 40.4827 6.95562 40.1406 6.96202 39.7937C6.96202 38.6541 5.96834 37.9392 4.16111 37.1974C2.11804 36.3934 0.437871 35.4578 0.437871 33.0868C0.437871 30.7158 2.39776 29.1523 5.03228 29.1523C6.31513 29.185 7.56392 29.5782 8.63947 30.2882L8.25187 31.9333C7.31967 31.2639 6.2116 30.8922 5.06977 30.866C3.42434 30.866 2.29084 31.8368 2.29084 33.1322C2.29084 34.5862 3.58612 35.1407 5.0277 35.6868C7.35507 36.5724 8.85059 37.7472 8.85059 39.8039Z" fill="currentColor"/>
<path d="M19.9917 38.8729H11.9702C12.0427 39.8334 12.4839 40.7265 13.199 41.3602C13.9142 41.9939 14.8461 42.3175 15.794 42.2612C16.6135 42.2671 17.4252 42.0994 18.1771 41.7689L18.5053 43.1598C17.6185 43.5662 16.6574 43.7791 15.6843 43.7847C14.9559 43.7888 14.234 43.6444 13.5616 43.3602C12.8891 43.0761 12.2797 42.6579 11.7696 42.1304C11.2595 41.6029 10.859 40.9769 10.5918 40.2894C10.3246 39.602 10.1962 38.8671 10.2142 38.1284C10.1726 37.4261 10.2736 36.7226 10.5108 36.0615C10.748 35.4004 11.1165 34.7957 11.5933 34.2848C12.0701 33.7739 12.6452 33.3677 13.283 33.0913C13.9208 32.8149 14.6077 32.6741 15.3013 32.6778C19.7814 32.6787 20.1315 36.7013 19.9917 38.8729ZM18.5062 37.4459C18.5409 37.019 18.4851 36.5894 18.3424 36.1862C18.1997 35.783 17.9735 35.4156 17.679 35.1086C17.3844 34.8016 17.0285 34.5622 16.6351 34.4065C16.2416 34.2508 15.8199 34.1824 15.3982 34.206C14.5221 34.1772 13.6706 34.5022 13.0305 35.1096C12.3904 35.717 12.014 36.5573 11.9839 37.4459H18.5062Z" fill="currentColor"/>
<path d="M31.1412 44.3337C31.1412 46.4173 28.6227 48.1021 25.4096 48.1021C22.818 48.1021 20.8115 47.1294 20.8115 45.2878C20.8115 44.3716 21.6507 43.6595 22.6717 43.0948C22.4424 43.0348 22.2294 42.9234 22.0482 42.7687C21.867 42.614 21.7224 42.4199 21.6251 42.2009C21.4754 41.8423 21.4373 41.446 21.5159 41.0648C21.5945 40.6837 21.786 40.3359 22.0648 40.0681L22.7458 39.382C22.3438 39.0235 22.0231 38.5809 21.8058 38.0847C21.5885 37.5884 21.4797 37.0504 21.487 36.5074C21.4902 35.9628 21.6032 35.4245 21.8191 34.9257C22.0349 34.4269 22.349 33.9782 22.742 33.6071C23.1351 33.236 23.5988 32.9504 24.1047 32.7678C24.6106 32.5852 25.148 32.5095 25.6838 32.5453C26.3217 32.5412 26.9543 32.6636 27.5459 32.9059L31.0699 32.9012L30.7417 34.2802L29.2059 34.1976C29.6837 34.8709 29.9365 35.6817 29.9272 36.5112C29.9215 37.0557 29.8059 37.5932 29.5876 38.0907C29.3692 38.5881 29.0528 39.035 28.6577 39.4036C28.2626 39.7722 27.7972 40.0549 27.2903 40.2341C26.7834 40.4133 26.2457 40.4853 25.7103 40.4456C24.9828 40.4565 24.2629 40.2948 23.6078 39.9736L23.1297 40.4465C23.0458 40.528 22.984 40.6301 22.95 40.7428C22.9161 40.8555 22.9113 40.9751 22.9361 41.0903C22.9609 41.2054 23.0144 41.3121 23.0915 41.4002C23.1687 41.4883 23.2668 41.5549 23.3765 41.5935C23.5379 41.6402 23.7052 41.6621 23.8729 41.6585H27.6601C30.1731 41.6594 31.1412 42.8723 31.1412 44.3337ZM29.1246 44.5655C29.1246 43.5381 28.6675 43.1959 27.2963 43.1959H23.9223C23.0995 43.8542 22.7001 44.38 22.7001 45.1431C22.7001 46.1427 23.5932 46.6407 25.4187 46.6407C27.609 46.6379 29.1246 45.8442 29.1246 44.5655ZM23.2742 36.475C23.2539 36.9662 23.379 37.4523 23.6334 37.8709C23.8877 38.2894 24.2597 38.6212 24.7015 38.8235C25.1432 39.0258 25.6345 39.0893 26.1122 39.0061C26.5899 38.9228 27.0322 38.6965 27.382 38.3562C27.7318 38.0159 27.9732 37.5773 28.0753 37.0966C28.1773 36.616 28.1352 36.1154 27.9545 35.6592C27.7737 35.203 27.4626 34.8121 27.061 34.5368C26.6594 34.2614 26.1859 34.1143 25.7012 34.1142C25.3868 34.0986 25.0726 34.1481 24.7778 34.2599C24.483 34.3717 24.2138 34.5434 23.9867 34.7644C23.7596 34.9854 23.5793 35.2511 23.4569 35.5452C23.3346 35.8393 23.2718 36.1557 23.2742 36.475Z" fill="currentColor"/>
<path d="M41.413 32.945V43.4881H39.8791L39.6598 42.0722C39.2179 42.5919 38.6774 43.0162 38.0706 43.3198C37.4638 43.6234 36.8031 43.8002 36.1276 43.8395C33.7508 43.8395 32.4053 42.4041 32.4053 39.0632V32.9432H34.1667V39.0715C34.1667 41.1357 34.8871 42.2938 36.6477 42.2938C37.254 42.2408 37.8401 42.047 38.3607 41.7274C38.8813 41.4077 39.3224 40.9707 39.6497 40.4503L39.6415 32.9395L41.413 32.945Z" fill="currentColor"/>
<path d="M49.8216 32.956L49.456 34.4906C48.9925 34.2925 48.4961 34.1858 47.9933 34.1762C47.4066 34.2195 46.8404 34.414 46.3485 34.7413C45.8566 35.0686 45.4553 35.5178 45.1824 36.0465L45.1906 43.4898H43.4209V32.9448H44.9447L45.1541 34.3357C45.4981 33.8482 45.9417 33.4418 46.4547 33.1441C46.9678 32.8465 47.5382 32.6646 48.1268 32.611C48.7107 32.5889 49.2913 32.7072 49.8216 32.956Z" fill="currentColor"/>
<path d="M61.2233 38.2056C61.2441 39.3364 60.9327 40.4479 60.3285 41.3984C59.7243 42.349 58.8548 43.0955 57.8308 43.5429C56.8067 43.9904 55.6745 44.1184 54.5785 43.9107C53.4825 43.703 52.4723 43.1689 51.6766 42.3766C50.8809 41.5843 50.3358 40.5697 50.1107 39.462C49.8856 38.3543 49.9908 37.2037 50.4127 36.1568C50.8347 35.1099 51.5544 34.2141 52.4801 33.5837C53.4058 32.9533 54.4956 32.6168 55.6106 32.6169C57.0854 32.6033 58.5051 33.1844 59.5576 34.2324C60.6102 35.2804 61.2093 36.7096 61.2233 38.2056ZM59.3777 38.2056C59.332 37.4599 59.0722 36.7441 58.6304 36.1463C58.1886 35.5485 57.584 35.0949 56.8911 34.8414C56.1983 34.5879 55.4475 34.5455 54.7312 34.7196C54.0149 34.8937 53.3644 35.2765 52.86 35.821C52.3556 36.3654 52.0193 37.0476 51.8924 37.7836C51.7656 38.5196 51.8538 39.2772 52.1462 39.9629C52.4386 40.6486 52.9224 41.2326 53.538 41.6429C54.1536 42.0531 54.874 42.2717 55.6106 42.2717C56.6413 42.238 57.6167 41.791 58.3229 41.0287C59.0291 40.2664 59.4084 39.2512 59.3777 38.2056Z" fill="currentColor"/>
<path d="M69.1787 40.6657C69.1504 42.6751 67.654 43.8313 65.5368 43.8313C64.334 43.8011 63.152 43.5065 62.0723 42.968L62.4461 41.3824C63.3813 41.8536 64.4025 42.1235 65.4454 42.1752C66.6584 42.1752 67.2974 41.694 67.3066 40.6294C67.3148 39.7782 66.8322 39.602 65.1895 38.824C63.3612 38.009 62.4965 36.9157 62.4965 35.408C62.4965 33.7333 63.6848 32.5742 66.0104 32.5742C67.0631 32.6115 68.0969 32.8689 69.0471 33.33L68.6814 34.8738C67.9147 34.4861 67.0758 34.2671 66.2197 34.2312C64.8247 34.2312 64.2214 34.6105 64.2214 35.4812C64.2214 36.3158 64.6501 36.721 66.0003 37.3692C68.2856 38.3882 69.187 39.1385 69.1787 40.6657Z" fill="currentColor"/>
</svg>
