<svg xmlns="http://www.w3.org/2000/svg" width="19" height="20" viewBox="0 0 19 20" fill="none">
  <g clip-path="url(#clip0_236_397)">
    <path d="M1.40016 18.9722C0.427992 18.9722 -0.000563562 18.266 0.446992 17.4031L8.68507 1.54074C9.13316 0.677826 9.86624 0.677826 10.3143 1.54074L18.5524 17.4036C19.001 18.266 18.5719 18.9722 17.5998 18.9722H1.40016Z" fill="#FFB600"/>
    <path d="M8.22461 15.7809C8.22503 15.4424 8.35969 15.118 8.59904 14.8788C8.83839 14.6395 9.16288 14.505 9.5013 14.5047C9.83964 14.5051 10.164 14.6397 10.4032 14.8789C10.6425 15.1182 10.7771 15.4425 10.7775 15.7809C10.7771 16.1192 10.6425 16.4437 10.4033 16.683C10.164 16.9223 9.83968 17.057 9.5013 17.0576C9.16283 17.0571 8.83834 16.9225 8.59901 16.6832C8.35967 16.4438 8.22503 16.1193 8.22461 15.7809ZM8.32278 6.12623C8.32278 5.43906 8.82997 5.01367 9.50078 5.01367C10.1557 5.01367 10.6793 5.45542 10.6793 6.12623V12.4268C10.6793 13.0976 10.1557 13.5394 9.50078 13.5394C8.82997 13.5394 8.32278 13.1135 8.32278 12.4268V6.12623Z" fill="#231F20"/>
  </g>
  <defs>
    <clipPath id="clip0_236_397">
      <rect width="19" height="19" fill="white" transform="translate(0 0.5)"/>
    </clipPath>
  </defs>
</svg>